<!--?xml version="1.0" encoding="utf-8"?-->
<!-- Generator: Adobe Illustrator 18.1.1, SVG Export Plug-In . SVG Version: 6.00 Build 0)  -->

<svg version="1.1" id="_x32_" xmlns="http://www.w3.org/2000/svg" xmlns:xlink="http://www.w3.org/1999/xlink" x="0px" y="0px" viewBox="0 0 512 512" style="width: 16px; height: 16px; opacity: 1;" xml:space="preserve">
<style type="text/css">
	.st0{fill:#4B4B4B;}
</style>
<g>
	<path class="st0" d="M458.252,170.634c39.049-39.089,39.057-102.338,0.008-141.387C419.234-9.764,355.969-9.748,316.911,29.286
		c-2.875,2.868-5.421,5.932-7.833,9.035c-39.151-29.118-94.677-26.046-130.214,9.484c-37.62,37.604-38.876,97.608-4.046,136.846
		l-0.024,0.409l4.078,4.102c0.102,0.094,0.212,0.172,0.338,0.282l0.055,0.079l0.322,0.282l0.024-0.015
		c8.344,8.14,17.78,14.386,27.814,19.014L36.668,379.583c-16.288,16.272-16.272,42.648,0,58.928l12.359,12.368
		c16.154,16.138,42.2,16.194,58.512,0.33l54.684,54.716c8.116,8.092,21.253,8.108,29.394,0l18.542-18.551
		c8.109-8.124,8.141-21.253,0.008-29.417l-15.517-15.533l12.5-12.485l15.534,15.526c8.156,8.085,21.214,8.1,29.393,0l18.535-18.551
		c8.077-8.132,8.101-21.245,0.008-29.393l-54.669-54.646l62.738-62.762c4.793,10.301,11.188,20.083,19.698,28.584
		c39.041,38.97,102.267,39.033,141.356-0.023c35.498-35.53,38.602-91.055,9.468-130.199
		C452.32,176.056,455.399,173.478,458.252,170.634z M249.899,412.237l-12.524,12.508l-30.226-30.218l-47.944,47.897l30.25,30.218
		l-12.54,12.556l-51.652-51.652l72.976-72.969L249.899,412.237z M422.023,290.972c-29.267,29.275-76.662,29.252-105.952,0
		c-10.379-10.395-17.011-23.037-20.004-36.465l-5.02-22.149L90.237,433.152c-6.49,6.506-16.995,6.506-23.509,0l-12.359-12.367
		c-6.49-6.506-6.49-16.995,0-23.484L255.178,196.46l-22.164-4.989c-13.397-3.033-26.039-9.617-36.441-20.02h-0.008
		c-0.008,0-0.008-0.016-0.016-0.048h0.008c-14.654-14.668-21.921-33.762-21.944-52.941c0.031-19.202,7.307-38.279,21.952-52.94
		c14.645-14.662,33.762-21.937,52.98-21.937c19.116,0,38.138,7.236,52.76,21.748l11.408,13.216l8.761-15.463
		c3.284-5.83,7.299-11.259,12.154-16.114c14.662-14.638,33.77-21.921,52.972-21.96c19.203,0.039,38.311,7.292,52.972,21.937
		c14.63,14.692,21.921,33.785,21.945,52.964c-0.008,19.226-7.315,38.327-21.96,52.995c-4.848,4.832-10.27,8.863-16.091,12.163
		l-15.494,8.753l13.223,11.408C451.258,214.492,451.235,261.76,422.023,290.972z" style="fill: rgb(75, 75, 75);"></path>
	<path class="st0" d="M222.109,91.042c-15.172,15.172-15.172,39.71,0,54.874c15.156,15.164,39.702,15.164,54.842,0
		c15.18-15.164,15.164-39.741,0.032-54.874C261.826,75.894,237.28,75.894,222.109,91.042z M262.808,131.75
		c-7.362,7.323-19.195,7.323-26.526-0.024c-7.346-7.338-7.338-19.156-0.015-26.517c7.37-7.323,19.202-7.323,26.541,0
		C270.13,112.555,270.107,124.388,262.808,131.75z" style="fill: rgb(75, 75, 75);"></path>
	<path class="st0" d="M415.022,127.357c15.172-15.171,15.133-39.709-0.007-54.857c-15.172-15.102-39.655-15.156-54.842,0
		c-15.172,15.164-15.188,39.709-0.016,54.905C375.321,142.568,399.874,142.514,415.022,127.357z M374.33,86.658
		c7.331-7.338,19.179-7.338,26.526,0c7.315,7.362,7.315,19.202,0.015,26.526c-7.362,7.338-19.218,7.338-26.556,0.016
		C366.984,105.884,366.992,94.02,374.33,86.658z" style="fill: rgb(75, 75, 75);"></path>
	<path class="st0" d="M396.503,210.563c-15.18-15.109-39.702-15.18-54.882,0c-15.148,15.164-15.14,39.725,0,54.882
		c15.148,15.133,39.702,15.156,54.874,0c15.156-15.172,15.172-39.717,0.016-54.882C396.503,210.563,396.503,210.563,396.503,210.563
		z M382.329,251.263c-7.346,7.323-19.195,7.323-26.526,0c-7.323-7.33-7.338-19.179-0.023-26.526c7.37-7.346,19.21-7.346,26.549,0
		l0.11,0.095C389.644,232.154,389.644,243.932,382.329,251.263z" style="fill: rgb(75, 75, 75);"></path>
</g>
</svg>
